<svg width="24" height="25" viewBox="0 0 24 25" fill="none" xmlns="http://www.w3.org/2000/svg">
<path d="M16.6 6.32C16.6 6.32 17.11 6.82 16.6 6.32C15.9165 5.53962 15.5397 4.53743 15.54 3.5H12.45V15.9C12.4262 16.571 12.1429 17.2066 11.6598 17.6729C11.1767 18.1393 10.5315 18.3999 9.86003 18.4C8.44003 18.4 7.26003 17.24 7.26003 15.8C7.26003 14.08 8.92003 12.79 10.63 13.32V10.16C7.18003 9.7 4.16003 12.38 4.16003 15.8C4.16003 19.13 6.92003 21.5 9.85003 21.5C12.99 21.5 15.54 18.95 15.54 15.8V9.51C16.793 10.4099 18.2974 10.8926 19.84 10.89V7.8C19.84 7.8 17.96 7.89 16.6 6.32Z" fill="white"/>
</svg>
